<svg xmlns="http://www.w3.org/2000/svg" xmlns:xlink="http://www.w3.org/1999/xlink" width="80" zoomAndPan="magnify" viewBox="0 0 60 30.000001" height="40" preserveAspectRatio="xMidYMid meet" version="1.0"><defs><clipPath id="a8bc486d71"><path d="M 49.894531 10.824219 L 56.214844 10.824219 L 56.214844 17.144531 L 49.894531 17.144531 Z M 49.894531 10.824219 " clip-rule="nonzero"/></clipPath><clipPath id="6869504d96"><path d="M 53.054688 10.824219 C 51.308594 10.824219 49.894531 12.238281 49.894531 13.984375 C 49.894531 15.730469 51.308594 17.144531 53.054688 17.144531 C 54.800781 17.144531 56.214844 15.730469 56.214844 13.984375 C 56.214844 12.238281 54.800781 10.824219 53.054688 10.824219 Z M 53.054688 10.824219 " clip-rule="nonzero"/></clipPath><clipPath id="0e128185b4"><path d="M 4.011719 10.886719 L 10.332031 10.886719 L 10.332031 17.207031 L 4.011719 17.207031 Z M 4.011719 10.886719 " clip-rule="nonzero"/></clipPath><clipPath id="6925ba4493"><path d="M 7.171875 10.886719 C 5.429688 10.886719 4.011719 12.300781 4.011719 14.046875 C 4.011719 15.792969 5.429688 17.207031 7.171875 17.207031 C 8.917969 17.207031 10.332031 15.792969 10.332031 14.046875 C 10.332031 12.300781 8.917969 10.886719 7.171875 10.886719 Z M 7.171875 10.886719 " clip-rule="nonzero"/></clipPath></defs><g clip-path="url(#a8bc486d71)"><g clip-path="url(#6869504d96)"><path fill="#ff5757" d="M 49.894531 10.824219 L 56.214844 10.824219 L 56.214844 17.144531 L 49.894531 17.144531 Z M 49.894531 10.824219 " fill-opacity="1" fill-rule="nonzero"/></g></g><path fill="#ff5757" d="M 11.507812 13.28125 L 15.722656 13.28125 L 15.722656 14.6875 L 11.507812 14.6875 M 17.128906 13.28125 L 21.34375 13.28125 L 21.34375 14.6875 L 17.128906 14.6875 M 22.746094 13.28125 L 26.960938 13.28125 L 26.960938 14.6875 L 22.746094 14.6875 M 28.367188 13.28125 L 32.582031 13.28125 L 32.582031 14.6875 L 28.367188 14.6875 M 33.984375 13.28125 L 38.199219 13.28125 L 38.199219 14.6875 L 33.984375 14.6875 M 39.605469 13.28125 L 43.820312 13.28125 L 43.820312 14.6875 L 39.605469 14.6875 M 45.222656 13.28125 L 48.492188 13.28125 L 48.492188 14.6875 L 45.222656 14.6875 " fill-opacity="1" fill-rule="nonzero"/><g clip-path="url(#0e128185b4)"><g clip-path="url(#6925ba4493)"><path fill="#ff5757" d="M 4.011719 10.886719 L 10.332031 10.886719 L 10.332031 17.207031 L 4.011719 17.207031 Z M 4.011719 10.886719 " fill-opacity="1" fill-rule="nonzero"/></g></g></svg>