<svg xmlns="http://www.w3.org/2000/svg" xmlns:xlink="http://www.w3.org/1999/xlink" width="80" zoomAndPan="magnify" viewBox="0 0 60 30.000001" height="40" preserveAspectRatio="xMidYMid meet" version="1.0"><defs><clipPath id="bfc2b1ed51"><path d="M 50.558594 11.183594 L 57.089844 11.183594 L 57.089844 17.714844 L 50.558594 17.714844 Z M 50.558594 11.183594 " clip-rule="nonzero"/></clipPath><clipPath id="7f57157823"><path d="M 53.824219 11.183594 C 52.019531 11.183594 50.558594 12.644531 50.558594 14.449219 C 50.558594 16.253906 52.019531 17.714844 53.824219 17.714844 C 55.628906 17.714844 57.089844 16.253906 57.089844 14.449219 C 57.089844 12.644531 55.628906 11.183594 53.824219 11.183594 Z M 53.824219 11.183594 " clip-rule="nonzero"/></clipPath><clipPath id="9475d388d2"><path d="M 3.144531 11.25 L 9.675781 11.25 L 9.675781 17.78125 L 3.144531 17.78125 Z M 3.144531 11.25 " clip-rule="nonzero"/></clipPath><clipPath id="b07a1616da"><path d="M 6.410156 11.25 C 4.609375 11.25 3.144531 12.710938 3.144531 14.515625 C 3.144531 16.320312 4.609375 17.78125 6.410156 17.78125 C 8.214844 17.78125 9.675781 16.320312 9.675781 14.515625 C 9.675781 12.710938 8.214844 11.25 6.410156 11.25 Z M 6.410156 11.25 " clip-rule="nonzero"/></clipPath></defs><g clip-path="url(#bfc2b1ed51)"><g clip-path="url(#7f57157823)"><path fill="#aace14" d="M 50.558594 11.183594 L 57.089844 11.183594 L 57.089844 17.714844 L 50.558594 17.714844 Z M 50.558594 11.183594 " fill-opacity="1" fill-rule="nonzero"/></g></g><path fill="#aace14" d="M 10.890625 13.722656 L 15.246094 13.722656 L 15.246094 15.175781 L 10.890625 15.175781 M 16.699219 13.722656 L 21.054688 13.722656 L 21.054688 15.175781 L 16.699219 15.175781 M 22.503906 13.722656 L 26.859375 13.722656 L 26.859375 15.175781 L 22.503906 15.175781 M 28.3125 13.722656 L 32.667969 13.722656 L 32.667969 15.175781 L 28.3125 15.175781 M 34.117188 13.722656 L 38.472656 13.722656 L 38.472656 15.175781 L 34.117188 15.175781 M 39.925781 13.722656 L 44.28125 13.722656 L 44.28125 15.175781 L 39.925781 15.175781 M 45.730469 13.722656 L 49.109375 13.722656 L 49.109375 15.175781 L 45.730469 15.175781 " fill-opacity="1" fill-rule="nonzero"/><g clip-path="url(#9475d388d2)"><g clip-path="url(#b07a1616da)"><path fill="#aace14" d="M 3.144531 11.25 L 9.675781 11.25 L 9.675781 17.78125 L 3.144531 17.78125 Z M 3.144531 11.25 " fill-opacity="1" fill-rule="nonzero"/></g></g></svg>