<?xml version="1.0" encoding="UTF-8"?>
<svg version="1.1" viewBox="0 0 1024 1024" width="1280" height="1280" xmlns="http://www.w3.org/2000/svg">
<path transform="translate(495,64)" d="m0 0h28l30 3 36 6 30 6 30 9 26 9 32 14 22 12 23 14 16 11 21 16 11 9 13 12 8 7 15 15 9 11 9 10 13 17 14 19 14 23 10 18 8 16 11 25 15 44 8 35 5 29 3 27 1 25v16l-2 31-4 28-7 36-9 32-11 30-11 25-10 20-17 28-7 11-13 18-13 16-18 20-25 25-11 9-10 9-11 8-18 13-16 10-24 14-29 14-27 11-38 12-36 8-30 5-32 3h-25l-40-3-32-5-36-8-35-11-22-9-29-13-24-14-17-10-17-12-16-12-28-24-22-22-7-8-11-13-11-14-13-18-9-14-14-24-11-22-10-22-10-28-9-29-7-31-5-38-3-35v-16l2-27 4-32 5-28 7-27 12-36 10-24 14-29 12-21 13-20 14-19 8-10 12-14 9-10 25-25 11-9 10-9 16-12 27-18 20-12 23-12 25-11 28-10 30-9 35-8 29-4zm-8 91-27 3-43 8-3 1v2l-4-1-28-4-6-1h-13l-9 1-2 2 24 4 24 8 20 10 15 10 10 9 6 5 9 11 9 12 10 17 8 18 6 20 3 20 1 11v15l-2 19-4 17-8 19-10 17-11 13-10 10-15 11-10 6-18 7-23 5h-22l-21-5-16-6-11-7-12-11-9-12-7-16-3-10-1-7v-9l3-16 5-12 6-10 2-4 4-2 8-6 9-4 9-2h14l12 3 10 6 5 5 6 9 4 16v10l-4 13-6 10v3l5-1 9-7 8-9 8-16 4-16 1-14-2-17-4-15-8-15-7-8-12-9-12-6-12-4-10-2h-30l-19 4-15 5-16 8-13 8-13 10-7 6v2l-3 1-7 8-10 14-12 21-11 23-10 25-7 22-6 24-4 21-3 31v46l3 27 6 31 7 25 9 25 11 24 11 22 13 21 14 19 11 13 11 12 14 14 14 11 11 9 16 10 13 8 17 8 21 8 24 7 25 5 11 1h42l18-3 17-5 21-9 15-9 11-9 7-6 7-8 11-14 8-13 8-20 4-12 4-21v-30l-5-22-8-19-7-11-9-10-10-9-13-8-14-6-14-3-18-1-21 2-20 6-11 7-15 12-7 10-4 8-3 10 5-3 8-7 10-7 11-4 9-2h12l16 4 9 5 10 9 6 10 3 8 1 4v20l-4 13-5 9-9 10-9 7-10 5-13 4-16 2h-15l-14-2-18-6-15-8-13-10-10-10-10-14-8-16-6-21-2-13v-22l3-19 6-20 10-21 8-12 8-10 9-10 11-10 16-11 18-10 23-9 25-6 8-1h55l7-23 8-18 10-18 8-11 9-10 12-12 17-12 16-9 16-6 13-4 11-2 14-1h12l16 2 19 5 16 7 16 10 14 12 9 9 10 13 10 18 6 15 4 17 1 7v18l-3 14-5 13-7 11-11 12-10 7-12 5-10 2h-24l-13-4-14-9-7-9-6-13-1-4v-12l3-10 6-10 7-7 9-5 10-3h15l10 3 12 6-2-6-8-10-10-7-10-4-10-2h-13l-13 3-13 7-10 9-7 8-8 16-3 13-1 22-11-7-10-6-25-12-19-6-7-1 2 2 21 10 15 9 19 14 13 13 9 10 11 15 9 15 11 23 7 21 6 25 4 27 1 11v35l-3 27-5 26-9 31-6 14-9 8-19 12-27 14-16 8-17 7 3 1 20-5 19-7 16-7 26-13 19-11 18-12 16-12 11-9 11-10 8-7 10-10 7-8 9-11 13-17 11-16 10-17 12-23 10-23 11-33 6-29 4-25 2-22v-41l-3-31-5-25-6-26-8-23-11-26-13-25-15-24-10-13-9-12-10-11-7-8-18-18-8-7-16-13-14-10-14-9-26-15-19-9-28-11-24-7-37-8-22-3-13-1z" fill="#FFFFFF"/>
</svg>
